<svg height="24" width="24" xmlns="http://www.w3.org/2000/svg"><path d="M2 6C.895 6 0 6.9 0 8v12c0 1.1.895 2 2 2h20c1.105 0 2-.9 2-2V8c0-1.1-.895-2-2-2H2z" fill="#c0392b"/><path d="M2 3C.895 3 0 3.9 0 5v12c0 1.1.895 2 2 2h20c1.105 0 2-.9 2-2V5c0-1.1-.895-2-2-2H2z" fill="#c0392b"/><path d="M2 5C.895 5 0 5.9 0 7v12c0 1.1.895 2 2 2h20c1.105 0 2-.9 2-2V7c0-1.1-.895-2-2-2H2z" fill="#e74c3c"/><path d="M18 14c0 3.314-2.686 6-6 6s-6-2.686-6-6 2.686-6 6-6 6 2.686 6 6z" fill="#c0392b"/><path d="M18 13c0 3.314-2.686 6-6 6s-6-2.686-6-6 2.686-6 6-6 6 2.686 6 6z" fill="#ecf0f1"/><path d="M16 12.986c0 2.21-1.79 4-4 4s-4-1.79-4-4 1.79-4 4-4 4 1.79 4 4z" fill="#34495e"/><path d="M15 12.914c0 1.657-1.343 3-3 3s-3-1.343-3-3 1.343-3 3-3 3 1.343 3 3z" fill="#2c3e50"/><path d="M14 13c0 1.105-.895 2-2 2s-2-.895-2-2 .895-2 2-2 2 .895 2 2z" fill="#34495e"/><path d="M13 13c0 .552-.448 1-1 1s-1-.448-1-1 .448-1 1-1 1 .448 1 1z" fill="#3498db"/><path d="M12 10.933c0 .552-.448 1-1 1s-1-.448-1-1 .448-1 1-1 1 .448 1 1zM19 8h3v1h-3z" fill="#ecf0f1"/><path fill="#c0392b" d="M19 7h3v1h-3zM4 2c-1.105 0-2 .895-2 2h7c0-1.105-.895-2-2-2H4z"/></svg>